<?xml version="1.0" encoding="UTF-8"?>
<svg width="60px" height="60px" viewBox="0 0 60 60" version="1.1" xmlns="http://www.w3.org/2000/svg" xmlns:xlink="http://www.w3.org/1999/xlink">
    <!-- Generator: Sketch 46.2 (44496) - http://www.bohemiancoding.com/sketch -->
    <title>buttonEraser</title>
    <desc>Created with Sketch.</desc>
    <defs></defs>
    <g id="working" stroke="none" stroke-width="1" fill="none" fill-rule="evenodd">
        <g id="buttonEraser">
            <rect id="bg" x="0" y="0" width="60" height="60" rx="2"></rect>
            <g id="icon24" transform="translate(18.000000, 18.000000)">
                <g id="icon" transform="translate(11.500000, 12.500000) rotate(-330.000000) translate(-11.500000, -12.500000) translate(6.000000, 2.000000)">
                    <path d="M7.46683908,20.4625211 L10.5,18.7113249 L10.5,1 C10.5,0.723857625 10.2761424,0.5 10,0.5 L1,0.5 C0.723857625,0.5 0.5,0.723857625 0.5,1 L0.5,19.9949689 L0.500006296,19.9974781 C0.501392108,20.273617 0.726370336,20.4963484 1.00250923,20.4949626 L7.46683908,20.4625211 Z" stroke="#F51C73"></path>
                    <path d="M1,5.83119411e-15 L10,3.6057016e-15 L10,3.77475828e-15 C10.5522847,2.69225043e-15 11,0.44771525 11,1 L11,14 L1,14 L1,14 C0.44771525,14 -3.2630337e-15,13.5522847 -3.33066907e-15,13 L-5.32907052e-15,1 L-5.32907052e-15,1 C-5.39670589e-15,0.44771525 0.44771525,6.0966574e-15 1,5.99520433e-15 Z" fill="#F51C73"></path>
                </g>
            </g>
        </g>
    </g>
</svg>