<?xml version="1.0" encoding="UTF-8"?>
<svg width="28px" height="28px" viewBox="0 0 28 28" version="1.1" xmlns="http://www.w3.org/2000/svg" xmlns:xlink="http://www.w3.org/1999/xlink">
    <!-- Generator: Sketch 46.2 (44496) - http://www.bohemiancoding.com/sketch -->
    <title>buttonRedo</title>
    <desc>Created with Sketch.</desc>
    <defs></defs>
    <g id="working" stroke="none" stroke-width="1" fill="none" fill-rule="evenodd">
        <g id="buttonRedo">
            <rect id="bg" x="0" y="0" width="28" height="28" rx="2"></rect>
            <g id="icon18" transform="translate(5.000000, 5.000000)" stroke="#F51C73">
                <path d="M9.25,0.377178814 L9.63411064,-0.083753954 L8.86588936,-0.083753954 L9.25,0.377178814 Z M14.528633,6.71153846 L15.2120432,7.53163066 L15.5961538,6.71153846 L14.528633,6.71153846 Z M14.4546992,15.3369377 C14.6875088,15.6826905 14.9330917,16.0336196 15.1914264,16.3897448 L15.684424,15.6040071 C15.2583613,15.5275896 14.8484732,15.4385811 14.4546992,15.3369377 Z M3.97136696,6.71153846 L2.90384615,6.71153846 L3.28795679,7.53163066 L3.97136696,6.71153846 Z M3.97136696,6.71153846 L9.25,0.377178814 L14.528633,6.71153846 L11.2884615,6.71153846 L11.2884615,7.21153846 C11.2884615,9.50644304 12.3492074,12.2100054 14.4546992,15.3369377 C10.0621601,14.2031085 7.67476206,11.4970865 7.2086785,7.15813642 L7.16070562,6.71153846 L3.97136696,6.71153846 Z" id="Rectangle-4" transform="translate(9.250000, 7.846154) rotate(-270.000000) translate(-9.250000, -7.846154) "></path>
            </g>
        </g>
    </g>
</svg>