<?xml version="1.0" encoding="UTF-8"?>
<svg width="60px" height="60px" viewBox="0 0 60 60" version="1.1" xmlns="http://www.w3.org/2000/svg" xmlns:xlink="http://www.w3.org/1999/xlink">
    <!-- Generator: Sketch 46.2 (44496) - http://www.bohemiancoding.com/sketch -->
    <title>buttonClear</title>
    <desc>Created with Sketch.</desc>
    <defs></defs>
    <g id="working" stroke="none" stroke-width="1" fill="none" fill-rule="evenodd">
        <g id="buttonClear">
            <rect id="bg" x="0" y="0" width="60" height="60" rx="2"></rect>
            <g id="icon24" transform="translate(18.000000, 18.000000)" fill="#F51C73">
                <path d="M12,18 L12,18 L12,18 C12.2761424,18 12.5,18.2238576 12.5,18.5 L12.5,20.5 L12.5,20.5 C12.5,20.7761424 12.2761424,21 12,21 L12,21 L12,21 C11.7238576,21 11.5,20.7761424 11.5,20.5 L11.5,18.5 L11.5,18.5 C11.5,18.2238576 11.7238576,18 12,18 Z M12,3 L12,3 L12,3 C12.2761424,3 12.5,3.22385763 12.5,3.5 L12.5,5.5 L12.5,5.5 C12.5,5.77614237 12.2761424,6 12,6 L12,6 L12,6 C11.7238576,6 11.5,5.77614237 11.5,5.5 L11.5,3.5 L11.5,3.5 C11.5,3.22385763 11.7238576,3 12,3 Z" id="Rectangle" transform="translate(12.000000, 12.000000) rotate(-240.000000) translate(-12.000000, -12.000000) "></path>
                <path d="M12,18 L12,18 L12,18 C12.2761424,18 12.5,18.2238576 12.5,18.5 L12.5,20.5 L12.5,20.5 C12.5,20.7761424 12.2761424,21 12,21 L12,21 L12,21 C11.7238576,21 11.5,20.7761424 11.5,20.5 L11.5,18.5 L11.5,18.5 C11.5,18.2238576 11.7238576,18 12,18 Z M12,3 L12,3 L12,3 C12.2761424,3 12.5,3.22385763 12.5,3.5 L12.5,5.5 L12.5,5.5 C12.5,5.77614237 12.2761424,6 12,6 L12,6 L12,6 C11.7238576,6 11.5,5.77614237 11.5,5.5 L11.5,3.5 L11.5,3.5 C11.5,3.22385763 11.7238576,3 12,3 Z" id="Rectangle" transform="translate(12.000000, 12.000000) rotate(-210.000000) translate(-12.000000, -12.000000) "></path>
                <path d="M12,18 L12,18 L12,18 C12.2761424,18 12.5,18.2238576 12.5,18.5 L12.5,21.5 L12.5,21.5 C12.5,21.7761424 12.2761424,22 12,22 L12,22 L12,22 C11.7238576,22 11.5,21.7761424 11.5,21.5 L11.5,18.5 L11.5,18.5 C11.5,18.2238576 11.7238576,18 12,18 Z M12,2 L12,2 L12,2 C12.2761424,2 12.5,2.22385763 12.5,2.5 L12.5,5.5 L12.5,5.5 C12.5,5.77614237 12.2761424,6 12,6 L12,6 L12,6 C11.7238576,6 11.5,5.77614237 11.5,5.5 L11.5,2.5 L11.5,2.5 C11.5,2.22385763 11.7238576,2 12,2 Z" id="Rectangle" transform="translate(12.000000, 12.000000) rotate(-270.000000) translate(-12.000000, -12.000000) "></path>
                <path d="M12,18 L12,18 L12,18 C12.2761424,18 12.5,18.2238576 12.5,18.5 L12.5,20.5 L12.5,20.5 C12.5,20.7761424 12.2761424,21 12,21 L12,21 L12,21 C11.7238576,21 11.5,20.7761424 11.5,20.5 L11.5,18.5 L11.5,18.5 C11.5,18.2238576 11.7238576,18 12,18 Z M12,3 L12,3 L12,3 C12.2761424,3 12.5,3.22385763 12.5,3.5 L12.5,5.5 L12.5,5.5 C12.5,5.77614237 12.2761424,6 12,6 L12,6 L12,6 C11.7238576,6 11.5,5.77614237 11.5,5.5 L11.5,3.5 L11.5,3.5 C11.5,3.22385763 11.7238576,3 12,3 Z" id="Rectangle" transform="translate(12.000000, 12.000000) rotate(-300.000000) translate(-12.000000, -12.000000) "></path>
                <path d="M12,18 L12,18 L12,18 C12.2761424,18 12.5,18.2238576 12.5,18.5 L12.5,20.5 L12.5,20.5 C12.5,20.7761424 12.2761424,21 12,21 L12,21 L12,21 C11.7238576,21 11.5,20.7761424 11.5,20.5 L11.5,18.5 L11.5,18.5 C11.5,18.2238576 11.7238576,18 12,18 Z M12,3 L12,3 L12,3 C12.2761424,3 12.5,3.22385763 12.5,3.5 L12.5,5.5 L12.5,5.5 C12.5,5.77614237 12.2761424,6 12,6 L12,6 L12,6 C11.7238576,6 11.5,5.77614237 11.5,5.5 L11.5,3.5 L11.5,3.5 C11.5,3.22385763 11.7238576,3 12,3 Z" id="Rectangle" transform="translate(12.000000, 12.000000) rotate(-330.000000) translate(-12.000000, -12.000000) "></path>
                <path d="M12,18 L12,18 L12,18 C12.2761424,18 12.5,18.2238576 12.5,18.5 L12.5,21.5 L12.5,21.5 C12.5,21.7761424 12.2761424,22 12,22 L12,22 L12,22 C11.7238576,22 11.5,21.7761424 11.5,21.5 L11.5,18.5 L11.5,18.5 C11.5,18.2238576 11.7238576,18 12,18 Z M12,2 L12,2 L12,2 C12.2761424,2 12.5,2.22385763 12.5,2.5 L12.5,5.5 L12.5,5.5 C12.5,5.77614237 12.2761424,6 12,6 L12,6 L12,6 C11.7238576,6 11.5,5.77614237 11.5,5.5 L11.5,2.5 L11.5,2.5 C11.5,2.22385763 11.7238576,2 12,2 Z" id="Rectangle"></path>
            </g>
        </g>
    </g>
</svg>