<?xml version="1.0" encoding="UTF-8"?>
<svg width="60px" height="60px" viewBox="0 0 60 60" version="1.1" xmlns="http://www.w3.org/2000/svg" xmlns:xlink="http://www.w3.org/1999/xlink">
    <!-- Generator: Sketch 46.2 (44496) - http://www.bohemiancoding.com/sketch -->
    <title>buttonPaint</title>
    <desc>Created with Sketch.</desc>
    <defs>
        <path d="M5.81697873,20.3519099 C6.3298639,21.5321044 5.57071267,23.9454726 5.20538921,25 C5.87376403,24.664638 12,21.1515731 12,17.4285879 C12,15.5350311 10.5014459,14 8.65288576,14 C6.80432562,14 5,15.4742868 5,17.3678436 C5,18.9760526 5.35851707,19.2969488 5.81697873,20.3519099 Z" id="path-1"></path>
    </defs>
    <g id="working" stroke="none" stroke-width="1" fill="none" fill-rule="evenodd">
        <g id="buttonPaint">
            <rect id="bg" x="0" y="0" width="60" height="60" rx="2"></rect>
            <g id="icon24" transform="translate(18.000000, 18.000000)">
                <g id="Path" transform="translate(8.500000, 19.500000) rotate(-330.000000) translate(-8.500000, -19.500000) ">
                    <use fill="#F51C73" fill-rule="evenodd" xlink:href="#path-1"></use>
                    <path stroke="#F51C73" stroke-width="1" d="M6.07707058,23.9080361 C6.14283856,23.8662386 6.20944585,23.8234367 6.2764043,23.7798866 C7.05588459,23.2729087 7.82609674,22.7071179 8.52777924,22.1051617 C10.4017034,20.4975682 11.5,18.8858687 11.5,17.4285879 C11.5,15.8085179 10.2225764,14.5 8.65288576,14.5 C6.99665415,14.5 5.5,15.8279666 5.5,17.3678436 C5.5,18.2170145 5.59152707,18.6668709 5.82604072,19.1924591 C5.86132685,19.2715418 6.16932716,19.908202 6.27554825,20.1526262 C6.66221529,21.0423815 6.5250409,22.3339871 6.07707058,23.9080361 Z"></path>
                </g>
                <path d="M14,0.5 C13.7238576,0.5 13.5,0.723857625 13.5,1 L13.5,14 C13.5,14.2761424 13.7238576,14.5 14,14.5 L16,14.5 C16.2761424,14.5 16.5,14.2761424 16.5,14 L16.5,1 C16.5,0.723857625 16.2761424,0.5 16,0.5 L14,0.5 Z" id="icon" stroke="#F51C73" transform="translate(15.000000, 7.500000) rotate(-330.000000) translate(-15.000000, -7.500000) "></path>
            </g>
        </g>
    </g>
</svg>